<svg width="12" height="12" viewBox="0 0 12 12" fill="none" xmlns="http://www.w3.org/2000/svg">
<path d="M11.9684 4.5955C11.8899 4.3525 11.6744 4.18 11.4194 4.157L7.95589 3.8425L6.58639 0.637C6.48539 0.402 6.25539 0.25 5.99989 0.25C5.74439 0.25 5.51439 0.402 5.41339 0.6375L4.04389 3.8425L0.57989 4.157C0.32539 4.1805 0.11039 4.3525 0.0313899 4.5955C-0.0476101 4.8385 0.0253899 5.105 0.21789 5.273L2.83589 7.569L2.06389 10.9695C2.00739 11.2195 2.10439 11.478 2.31189 11.628C2.42339 11.7085 2.55389 11.7495 2.68539 11.7495C2.79889 11.7495 2.91139 11.719 3.01239 11.6585L5.99989 9.873L8.98639 11.6585C9.20489 11.79 9.48039 11.778 9.68739 11.628C9.89489 11.4775 9.99189 11.219 9.93539 10.9695L9.16339 7.569L11.7814 5.2735C11.9739 5.105 12.0474 4.839 11.9684 4.5955V4.5955Z" fill="#FFC107"/>
</svg>
